<!DOCTYPE svg PUBLIC "-//W3C//DTD SVG 1.1//EN" "http://www.w3.org/Graphics/SVG/1.1/DTD/svg11.dtd">
<!-- Uploaded to: SVG Repo, www.svgrepo.com, Transformed by: SVG Repo Mixer Tools -->
<svg height="800px" width="800px" version="1.1" id="Layer_1" xmlns="http://www.w3.org/2000/svg" xmlns:xlink="http://www.w3.org/1999/xlink" viewBox="0 0 508.1 508.1" xml:space="preserve" fill="#000000">
<g id="SVGRepo_bgCarrier" stroke-width="0"/>
<g id="SVGRepo_tracerCarrier" stroke-linecap="round" stroke-linejoin="round"/>
<g id="SVGRepo_iconCarrier"> <path style="fill:#FFFFFF;" d="M254.095,125c-89.1,0-160.9,117.8-160.9,215.3c0,87.6,60.2,139.8,160.9,139.8s160.9-52.3,160.9-139.9 C414.995,242.8,343.195,125,254.095,125z"/> <path style="fill:#336B87;" d="M198.595,109.6c17.5-7.8,36.1-12.2,55.5-12.2s38.1,4.4,55.5,12.2l18.3-63.3 c2.4-10.2-4.7-17.9-13.6-18h-120.5c-9.2,0.1-15.9,9-13.6,18L198.595,109.6z"/> <path style="fill:#6dc6ff;" d="M359.895,401.9c-7.8,0-14.1-6.3-14.1-14.1c0-7.8,6.3-14.1,14.1-14.1h21.2c0.5,0,0.9,0.1,1.4,0.1 c2.5-9.9,3.9-21,3.9-33.5h-43.3c-7.8,0-14.1-6.3-14.1-14.1c0-7.8,6.3-14.1,14.1-14.1h41c-11.7-76.1-67.8-158.4-130-158.4 c-31.1,0-60.7,20.6-83.9,50.7h21c7.8,0,14.1,6.3,14.1,14.1c0,7.8-6.3,14.1-14.1,14.1h-38c-0.5,0-0.9-0.1-1.4-0.1 c-5.9,10.7-11.1,21.9-15.4,33.5h14.1c7.8,0,14.1,6.3,14.1,14.1c0,7.8-6.3,14.1-14.1,14.1h-21.2c-0.5,0-1.1-0.1-1.6-0.2 c-3.8,15.6-5.8,31.3-5.8,46.2c0,96.8,82.9,111.3,132.3,111.3c36.1,0,89.9-7.8,116.4-49.6L359.895,401.9L359.895,401.9z"/> <g> <path style="fill:#003366;" d="M256.295,316.4h-0.1C255.695,316.4,256.195,316.4,256.295,316.4z"/> <path style="fill:#003366;" d="M254.095,233.2c15.5,0,28,12.6,28,28c0,7.5,6.1,13.6,13.6,13.6s13.6-6.1,13.6-13.6 c0-25.8-17.8-47.4-41.7-53.5v-13.5c0-7.5-6.1-13.6-13.6-13.6c-7.5,0-13.6,6.1-13.6,13.6v13.5c-23.9,6.1-41.7,27.7-41.7,53.5 c0,30.5,26.9,55.1,57.3,55.1c0.2,0,0.2,0,0.1,0c14.4,1.1,25.8,13.2,25.8,27.9c0,15.5-12.6,28-28,28c-15.5,0-28-12.6-28-28 c0-7.5-6.1-13.6-13.6-13.6s-13.6,6.1-13.6,13.6c0,25.8,17.8,47.4,41.7,53.5v13.4c0,7.5,6.1,13.6,13.6,13.6s13.6-6.1,13.6-13.6 v-13.4c23.9-6.1,41.7-27.7,41.7-53.5c0-30.5-24.8-55.3-55.3-55.3c0.5-0.1,0,0-0.1,0c-14.4-1.1-27.9-13.1-27.9-27.8 C226.095,245.8,238.595,233.2,254.095,233.2z"/> <path style="fill:#003366;" d="M356.695,141.2l71.4,3.1c7.8,0.4,14.4-5.7,14.7-13.5c0.3-7.8-5.7-14.4-13.5-14.7l-91-4l16.8-58 c8.5-27-12.4-54.1-40.7-54.1h-120.6c-26.5,0-48.3,25.6-40.7,54.1l20.1,69.7c-64.4,43.9-107.9,135-107.9,216.5 c0.1,103.5,72.4,167.8,188.8,167.8s188.7-64.3,188.7-167.7C442.795,268.4,408.895,189,356.695,141.2z M193.795,28.3h120.6 c8.9,0.1,16,7.8,13.6,18l-18.3,63.3c-17.5-7.8-36.1-12.2-55.5-12.2s-38.1,4.4-55.5,12.2l-18.3-63.3 C177.895,37.3,184.695,28.5,193.795,28.3z M254.095,480.1c-100.7,0-160.9-52.3-160.9-139.9c0-97.5,71.8-215.3,160.9-215.3 s160.9,117.8,160.9,215.3C414.995,427.9,354.795,480.1,254.095,480.1z"/> </g> </g>
</svg>