<svg width="142" height="50" viewBox="0 0 142 50" fill="none" xmlns="http://www.w3.org/2000/svg">
<path d="M136.501 49.048C136.085 49.048 135.685 48.9813 135.301 48.848C134.923 48.7093 134.629 48.5333 134.421 48.32L134.653 47.864C134.851 48.056 135.115 48.2187 135.445 48.352C135.781 48.48 136.133 48.544 136.501 48.544C136.853 48.544 137.139 48.5013 137.357 48.416C137.581 48.3253 137.744 48.2053 137.845 48.056C137.952 47.9067 138.005 47.7413 138.005 47.56C138.005 47.3413 137.941 47.1653 137.813 47.032C137.691 46.8987 137.528 46.7947 137.325 46.72C137.123 46.64 136.899 46.5707 136.653 46.512C136.408 46.4533 136.163 46.392 135.917 46.328C135.672 46.2587 135.445 46.168 135.237 46.056C135.035 45.944 134.869 45.7973 134.741 45.616C134.619 45.4293 134.557 45.1867 134.557 44.888C134.557 44.6107 134.629 44.3573 134.773 44.128C134.923 43.8933 135.149 43.7067 135.453 43.568C135.757 43.424 136.147 43.352 136.621 43.352C136.936 43.352 137.248 43.3973 137.557 43.488C137.867 43.5733 138.133 43.6933 138.357 43.848L138.157 44.32C137.917 44.16 137.661 44.0427 137.389 43.968C137.123 43.8933 136.864 43.856 136.613 43.856C136.277 43.856 136 43.9013 135.781 43.992C135.563 44.0827 135.4 44.2053 135.293 44.36C135.192 44.5093 135.141 44.68 135.141 44.872C135.141 45.0907 135.203 45.2667 135.325 45.4C135.453 45.5333 135.619 45.6373 135.821 45.712C136.029 45.7867 136.256 45.8533 136.501 45.912C136.747 45.9707 136.989 46.0347 137.229 46.104C137.475 46.1733 137.699 46.264 137.901 46.376C138.109 46.4827 138.275 46.6267 138.397 46.808C138.525 46.9893 138.589 47.2267 138.589 47.52C138.589 47.792 138.515 48.0453 138.365 48.28C138.216 48.5093 137.987 48.696 137.677 48.84C137.373 48.9787 136.981 49.048 136.501 49.048Z" fill="#1B1B1B"/>
<path d="M130.72 49.04C130.603 49.04 130.501 48.9973 130.416 48.912C130.336 48.8267 130.296 48.7227 130.296 48.6C130.296 48.472 130.336 48.368 130.416 48.288C130.501 48.208 130.603 48.168 130.72 48.168C130.837 48.168 130.936 48.208 131.016 48.288C131.101 48.368 131.144 48.472 131.144 48.6C131.144 48.7227 131.101 48.8267 131.016 48.912C130.936 48.9973 130.837 49.04 130.72 49.04Z" fill="#1B1B1B"/>
<path d="M121.48 49L124.04 43.4H124.624L127.184 49H126.56L124.208 43.744H124.448L122.096 49H121.48ZM122.488 47.504L122.664 47.024H125.92L126.096 47.504H122.488Z" fill="#1B1B1B"/>
<path d="M117.943 49.04C117.826 49.04 117.725 48.9973 117.639 48.912C117.559 48.8267 117.519 48.7227 117.519 48.6C117.519 48.472 117.559 48.368 117.639 48.288C117.725 48.208 117.826 48.168 117.943 48.168C118.061 48.168 118.159 48.208 118.239 48.288C118.325 48.368 118.367 48.472 118.367 48.6C118.367 48.7227 118.325 48.8267 118.239 48.912C118.159 48.9973 118.061 49.04 117.943 49.04Z" fill="#1B1B1B"/>
<path d="M112.073 49.048C111.657 49.048 111.257 48.9813 110.873 48.848C110.495 48.7093 110.201 48.5333 109.993 48.32L110.225 47.864C110.423 48.056 110.687 48.2187 111.017 48.352C111.353 48.48 111.705 48.544 112.073 48.544C112.425 48.544 112.711 48.5013 112.929 48.416C113.153 48.3253 113.316 48.2053 113.417 48.056C113.524 47.9067 113.577 47.7413 113.577 47.56C113.577 47.3413 113.513 47.1653 113.385 47.032C113.263 46.8987 113.1 46.7947 112.897 46.72C112.695 46.64 112.471 46.5707 112.225 46.512C111.98 46.4533 111.735 46.392 111.489 46.328C111.244 46.2587 111.017 46.168 110.809 46.056C110.607 45.944 110.441 45.7973 110.313 45.616C110.191 45.4293 110.129 45.1867 110.129 44.888C110.129 44.6107 110.201 44.3573 110.345 44.128C110.495 43.8933 110.721 43.7067 111.025 43.568C111.329 43.424 111.719 43.352 112.193 43.352C112.508 43.352 112.82 43.3973 113.129 43.488C113.439 43.5733 113.705 43.6933 113.929 43.848L113.729 44.32C113.489 44.16 113.233 44.0427 112.961 43.968C112.695 43.8933 112.436 43.856 112.185 43.856C111.849 43.856 111.572 43.9013 111.353 43.992C111.135 44.0827 110.972 44.2053 110.865 44.36C110.764 44.5093 110.713 44.68 110.713 44.872C110.713 45.0907 110.775 45.2667 110.897 45.4C111.025 45.5333 111.191 45.6373 111.393 45.712C111.601 45.7867 111.828 45.8533 112.073 45.912C112.319 45.9707 112.561 46.0347 112.801 46.104C113.047 46.1733 113.271 46.264 113.473 46.376C113.681 46.4827 113.847 46.6267 113.969 46.808C114.097 46.9893 114.161 47.2267 114.161 47.52C114.161 47.792 114.087 48.0453 113.937 48.28C113.788 48.5093 113.559 48.696 113.249 48.84C112.945 48.9787 112.553 49.048 112.073 49.048Z" fill="#1B1B1B"/>
<path d="M99.3725 49.048C98.9512 49.048 98.5592 48.9787 98.1965 48.84C97.8392 48.696 97.5272 48.496 97.2605 48.24C96.9992 47.9787 96.7938 47.6773 96.6445 47.336C96.5005 46.9893 96.4285 46.6107 96.4285 46.2C96.4285 45.7893 96.5005 45.4133 96.6445 45.072C96.7938 44.7253 96.9992 44.424 97.2605 44.168C97.5272 43.9067 97.8392 43.7067 98.1965 43.568C98.5538 43.424 98.9458 43.352 99.3725 43.352C99.7938 43.352 100.183 43.424 100.54 43.568C100.898 43.7067 101.207 43.904 101.468 44.16C101.735 44.416 101.94 44.7173 102.084 45.064C102.234 45.4107 102.308 45.7893 102.308 46.2C102.308 46.6107 102.234 46.9893 102.084 47.336C101.94 47.6827 101.735 47.984 101.468 48.24C101.207 48.496 100.898 48.696 100.54 48.84C100.183 48.9787 99.7938 49.048 99.3725 49.048ZM99.3725 48.52C99.7085 48.52 100.018 48.464 100.3 48.352C100.588 48.2347 100.836 48.072 101.044 47.864C101.258 47.6507 101.423 47.4053 101.54 47.128C101.658 46.8453 101.716 46.536 101.716 46.2C101.716 45.864 101.658 45.5573 101.54 45.28C101.423 44.9973 101.258 44.752 101.044 44.544C100.836 44.3307 100.588 44.168 100.3 44.056C100.018 43.9387 99.7085 43.88 99.3725 43.88C99.0365 43.88 98.7245 43.9387 98.4365 44.056C98.1485 44.168 97.8978 44.3307 97.6845 44.544C97.4765 44.752 97.3112 44.9973 97.1885 45.28C97.0712 45.5573 97.0125 45.864 97.0125 46.2C97.0125 46.5307 97.0712 46.8373 97.1885 47.12C97.3112 47.4027 97.4765 47.6507 97.6845 47.864C97.8978 48.072 98.1485 48.2347 98.4365 48.352C98.7245 48.464 99.0365 48.52 99.3725 48.52Z" fill="#1B1B1B"/>
<path d="M91.0969 49V43.912H89.1289V43.4H93.6569V43.912H91.6889V49H91.0969Z" fill="#1B1B1B"/>
<path d="M81.1011 49V43.4H81.5891L85.4531 48.264H85.1971V43.4H85.7811V49H85.2931L81.4371 44.136H81.6931V49H81.1011Z" fill="#1B1B1B"/>
<path d="M73.8775 45.904H76.8375V46.408H73.8775V45.904ZM73.9415 48.488H77.3095V49H73.3495V43.4H77.1895V43.912H73.9415V48.488Z" fill="#1B1B1B"/>
<path d="M68.5354 49V43.4H69.1274V49H68.5354Z" fill="#1B1B1B"/>
<path d="M58.4948 49V43.4H58.9828L61.5428 47.768H61.2868L63.8228 43.4H64.3108V49H63.7428V44.288H63.8788L61.5428 48.288H61.2628L58.9108 44.288H59.0628V49H58.4948Z" fill="#1B1B1B"/>
<path d="M53.6808 49V43.4H54.2728V49H53.6808Z" fill="#1B1B1B"/>
<path d="M44.7729 49V43.4H45.2609L49.1249 48.264H48.8689V43.4H49.4529V49H48.9649L45.1089 44.136H45.3649V49H44.7729Z" fill="#1B1B1B"/>
<path d="M37.5494 45.904H40.5094V46.408H37.5494V45.904ZM37.6134 48.488H40.9814V49H37.0214V43.4H40.8614V43.912H37.6134V48.488Z" fill="#1B1B1B"/>
<path d="M31.1156 49V43.912H29.1476V43.4H33.6756V43.912H31.7076V49H31.1156Z" fill="#1B1B1B"/>
<path d="M21.1198 49V43.4H21.6078L25.4718 48.264H25.2158V43.4H25.7998V49H25.3118L21.4558 44.136H21.7118V49H21.1198Z" fill="#1B1B1B"/>
<path d="M12.0894 49L14.6494 43.4H15.2334L17.7934 49H17.1694L14.8174 43.744H15.0574L12.7054 49H12.0894ZM13.0974 47.504L13.2734 47.024H16.5294L16.7054 47.504H13.0974Z" fill="#1B1B1B"/>
<path d="M2.94481 49V43.4H3.43281L5.99281 47.768H5.73681L8.27281 43.4H8.76081V49H8.19281V44.288H8.32881L5.99281 48.288H5.71281L3.36081 44.288H3.51281V49H2.94481Z" fill="#1B1B1B"/>
<path d="M38.7 0.479999H45.18V28.48H38.7V0.479999ZM25.98 28.48H19.5V0.479999H25.98V28.48ZM39.18 17H25.5V11.52H39.18V17Z" fill="#003366"/>
<path d="M55.4047 28.48V0.479999H60.7647L72.6847 20.24H69.8447L81.5647 0.479999H86.8847L86.9647 28.48H80.8847L80.8447 9.8H81.9647L72.6047 25.52H69.6847L60.1247 9.8H61.4847V28.48H55.4047Z" fill="#003366"/>
<path d="M110.608 28.96C108.448 28.96 106.434 28.6133 104.568 27.92C102.728 27.2 101.128 26.1867 99.7678 24.88C98.4078 23.5733 97.3411 22.04 96.5678 20.28C95.8211 18.52 95.4478 16.5867 95.4478 14.48C95.4478 12.3733 95.8211 10.44 96.5678 8.68C97.3411 6.92 98.4078 5.38667 99.7678 4.08C101.154 2.77333 102.768 1.77333 104.608 1.08C106.448 0.359999 108.461 0 110.648 0C113.074 0 115.261 0.426667 117.208 1.28C119.181 2.10667 120.834 3.33333 122.168 4.96L118.008 8.8C117.048 7.70667 115.981 6.89333 114.808 6.36C113.634 5.8 112.354 5.52 110.968 5.52C109.661 5.52 108.461 5.73333 107.368 6.16C106.274 6.58667 105.328 7.2 104.528 8C103.728 8.8 103.101 9.74667 102.648 10.84C102.221 11.9333 102.008 13.1467 102.008 14.48C102.008 15.8133 102.221 17.0267 102.648 18.12C103.101 19.2133 103.728 20.16 104.528 20.96C105.328 21.76 106.274 22.3733 107.368 22.8C108.461 23.2267 109.661 23.44 110.968 23.44C112.354 23.44 113.634 23.1733 114.808 22.64C115.981 22.08 117.048 21.24 118.008 20.12L122.168 23.96C120.834 25.5867 119.181 26.8267 117.208 27.68C115.261 28.5333 113.061 28.96 110.608 28.96Z" fill="#003366"/>
<path d="M141.5 35.5C92.4986 32.6628 60.2532 34.4915 1 39" stroke="#569FBA" stroke-width="3"/>
</svg>
