<svg width="114" height="53" viewBox="0 0 114 53" fill="none" xmlns="http://www.w3.org/2000/svg">
<path d="M25.2665 1.012H31.7465V29.012H25.2665V1.012ZM12.5465 29.012H6.0665V1.012H12.5465V29.012ZM25.7465 17.532H12.0665V12.052H25.7465V17.532Z" fill="#003366"/>
<path d="M41.9712 29.012V1.012H47.3312L59.2512 20.772H56.4112L68.1312 1.012H73.4512L73.5312 29.012H67.4512L67.4112 10.332H68.5312L59.1712 26.052H56.2512L46.6912 10.332H48.0512V29.012H41.9712Z" fill="#003366"/>
<path d="M97.1743 29.492C95.0143 29.492 93.001 29.1453 91.1343 28.452C89.2943 27.732 87.6943 26.7187 86.3343 25.412C84.9743 24.1053 83.9076 22.572 83.1343 20.812C82.3876 19.052 82.0143 17.1187 82.0143 15.012C82.0143 12.9053 82.3876 10.972 83.1343 9.212C83.9076 7.452 84.9743 5.91866 86.3343 4.612C87.721 3.30533 89.3343 2.30533 91.1743 1.612C93.0143 0.891997 95.0276 0.531998 97.2143 0.531998C99.641 0.531998 101.828 0.958664 103.774 1.812C105.748 2.63866 107.401 3.86533 108.734 5.492L104.574 9.332C103.614 8.23866 102.548 7.42533 101.374 6.892C100.201 6.332 98.921 6.052 97.5343 6.052C96.2276 6.052 95.0276 6.26533 93.9343 6.692C92.841 7.11866 91.8943 7.732 91.0943 8.532C90.2943 9.332 89.6676 10.2787 89.2143 11.372C88.7876 12.4653 88.5743 13.6787 88.5743 15.012C88.5743 16.3453 88.7876 17.5587 89.2143 18.652C89.6676 19.7453 90.2943 20.692 91.0943 21.492C91.8943 22.292 92.841 22.9053 93.9343 23.332C95.0276 23.7587 96.2276 23.972 97.5343 23.972C98.921 23.972 100.201 23.7053 101.374 23.172C102.548 22.612 103.614 21.772 104.574 20.652L108.734 24.492C107.401 26.1187 105.748 27.3587 103.774 28.212C101.828 29.0653 99.6276 29.492 97.1743 29.492Z" fill="#003366"/>
<path d="M8.5745 45.174C9.1205 45.174 9.59283 45.2823 9.9915 45.499C10.3988 45.707 10.7152 46.0277 10.9405 46.461C11.1658 46.8857 11.2785 47.4143 11.2785 48.047V52.012H10.6285V48.099C10.6285 47.3363 10.4422 46.7557 10.0695 46.357C9.69683 45.9583 9.17683 45.759 8.5095 45.759C7.99816 45.759 7.55616 45.8673 7.1835 46.084C6.81083 46.3007 6.52483 46.604 6.3255 46.994C6.12616 47.384 6.0265 47.852 6.0265 48.398V52.012H5.3765V48.099C5.3765 47.3363 5.19016 46.7557 4.8175 46.357C4.44483 45.9583 3.92483 45.759 3.2575 45.759C2.74616 45.759 2.30416 45.8673 1.9315 46.084C1.55883 46.3007 1.27283 46.604 1.0735 46.994C0.874163 47.384 0.774496 47.852 0.774496 48.398V52.012H0.124496V45.226H0.748497V47.098L0.657496 46.89C0.85683 46.3613 1.1905 45.9453 1.6585 45.642C2.1265 45.33 2.68983 45.174 3.3485 45.174C4.0245 45.174 4.59216 45.3473 5.0515 45.694C5.5195 46.032 5.81416 46.539 5.9355 47.215L5.7145 47.124C5.8965 46.5433 6.23883 46.0753 6.7415 45.72C7.24416 45.356 7.85516 45.174 8.5745 45.174Z" fill="#E6E6E6"/>
<path d="M19.4094 52.012V50.465L19.3834 50.231V47.683C19.3834 47.0503 19.2101 46.5693 18.8634 46.24C18.5254 45.9107 18.0271 45.746 17.3684 45.746C16.9004 45.746 16.4627 45.8283 16.0554 45.993C15.6567 46.149 15.3144 46.3527 15.0284 46.604L14.7034 46.136C15.0414 45.8327 15.4487 45.5987 15.9254 45.434C16.4021 45.2607 16.9004 45.174 17.4204 45.174C18.2611 45.174 18.9067 45.3863 19.3574 45.811C19.8081 46.2357 20.0334 46.8683 20.0334 47.709V52.012H19.4094ZM16.9654 52.064C16.4627 52.064 16.0251 51.986 15.6524 51.83C15.2884 51.6653 15.0067 51.4357 14.8074 51.141C14.6167 50.8463 14.5214 50.5083 14.5214 50.127C14.5214 49.7803 14.5994 49.4683 14.7554 49.191C14.9201 48.905 15.1887 48.6753 15.5614 48.502C15.9341 48.32 16.4324 48.229 17.0564 48.229H19.5524V48.736H17.0694C16.3674 48.736 15.8734 48.866 15.5874 49.126C15.3101 49.386 15.1714 49.711 15.1714 50.101C15.1714 50.5343 15.3361 50.881 15.6654 51.141C15.9947 51.401 16.4584 51.531 17.0564 51.531C17.6284 51.531 18.1094 51.401 18.4994 51.141C18.8981 50.881 19.1927 50.504 19.3834 50.01L19.5654 50.452C19.3834 50.946 19.0714 51.3403 18.6294 51.635C18.1961 51.921 17.6414 52.064 16.9654 52.064Z" fill="#E6E6E6"/>
<path d="M27.1965 45.174C27.7512 45.174 28.2322 45.2823 28.6395 45.499C29.0555 45.707 29.3762 46.0277 29.6015 46.461C29.8355 46.8857 29.9525 47.4143 29.9525 48.047V52.012H29.3025V48.099C29.3025 47.3363 29.1075 46.7557 28.7175 46.357C28.3362 45.9583 27.7988 45.759 27.1055 45.759C26.5768 45.759 26.1175 45.8673 25.7275 46.084C25.3375 46.3007 25.0385 46.604 24.8305 46.994C24.6312 47.384 24.5315 47.852 24.5315 48.398V52.012H23.8815V45.226H24.5055V47.111L24.4145 46.903C24.6225 46.3657 24.9648 45.9453 25.4415 45.642C25.9182 45.33 26.5032 45.174 27.1965 45.174Z" fill="#E6E6E6"/>
<path d="M35.7746 52.064C35.1766 52.064 34.7172 51.8993 34.3966 51.57C34.0846 51.2407 33.9286 50.79 33.9286 50.218V43.744H34.5786V50.153C34.5786 50.5863 34.6869 50.92 34.9036 51.154C35.1202 51.388 35.4322 51.505 35.8396 51.505C36.2642 51.505 36.6152 51.3793 36.8926 51.128L37.1656 51.583C36.9922 51.7477 36.7799 51.869 36.5286 51.947C36.2859 52.025 36.0346 52.064 35.7746 52.064ZM32.6806 45.785V45.226H36.7366V45.785H32.6806Z" fill="#E6E6E6"/>
<path d="M42.663 52.064C41.9784 52.064 41.3717 51.9167 40.843 51.622C40.323 51.3273 39.9114 50.92 39.608 50.4C39.3134 49.88 39.166 49.2863 39.166 48.619C39.166 47.943 39.3047 47.3493 39.582 46.838C39.868 46.318 40.258 45.9107 40.752 45.616C41.246 45.3213 41.8007 45.174 42.416 45.174C43.0314 45.174 43.5817 45.317 44.067 45.603C44.561 45.889 44.9467 46.292 45.224 46.812C45.51 47.3233 45.653 47.917 45.653 48.593C45.653 48.619 45.6487 48.6493 45.64 48.684C45.64 48.71 45.64 48.7403 45.64 48.775H39.647V48.268H45.289L45.029 48.515C45.0377 47.9863 44.925 47.514 44.691 47.098C44.4657 46.6733 44.158 46.344 43.768 46.11C43.378 45.8673 42.9274 45.746 42.416 45.746C41.9134 45.746 41.4627 45.8673 41.064 46.11C40.674 46.344 40.3664 46.6733 40.141 47.098C39.9157 47.514 39.803 47.9907 39.803 48.528V48.645C39.803 49.1997 39.9244 49.6937 40.167 50.127C40.4184 50.5517 40.7607 50.8853 41.194 51.128C41.6274 51.362 42.1214 51.479 42.676 51.479C43.1094 51.479 43.5124 51.401 43.885 51.245C44.2664 51.089 44.587 50.8507 44.847 50.53L45.224 50.959C44.9294 51.323 44.5567 51.6003 44.106 51.791C43.664 51.973 43.183 52.064 42.663 52.064Z" fill="#E6E6E6"/>
<path d="M52.1489 45.174C52.7035 45.174 53.1845 45.2823 53.5919 45.499C54.0079 45.707 54.3285 46.0277 54.5539 46.461C54.7879 46.8857 54.9049 47.4143 54.9049 48.047V52.012H54.2549V48.099C54.2549 47.3363 54.0599 46.7557 53.6699 46.357C53.2885 45.9583 52.7512 45.759 52.0579 45.759C51.5292 45.759 51.0699 45.8673 50.6799 46.084C50.2899 46.3007 49.9909 46.604 49.7829 46.994C49.5835 47.384 49.4839 47.852 49.4839 48.398V52.012H48.8339V45.226H49.4579V47.111L49.3669 46.903C49.5749 46.3657 49.9172 45.9453 50.3939 45.642C50.8705 45.33 51.4555 45.174 52.1489 45.174Z" fill="#E6E6E6"/>
<path d="M58.7509 52.012V45.226H59.4009V52.012H58.7509ZM59.0759 43.575C58.9286 43.575 58.8029 43.523 58.6989 43.419C58.5949 43.315 58.5429 43.1937 58.5429 43.055C58.5429 42.9077 58.5949 42.782 58.6989 42.678C58.8029 42.574 58.9286 42.522 59.0759 42.522C59.2319 42.522 59.3576 42.574 59.4529 42.678C59.5569 42.7733 59.6089 42.8947 59.6089 43.042C59.6089 43.1893 59.5569 43.315 59.4529 43.419C59.3576 43.523 59.2319 43.575 59.0759 43.575Z" fill="#E6E6E6"/>
<path d="M71.7606 45.174C72.3066 45.174 72.7789 45.2823 73.1776 45.499C73.5849 45.707 73.9013 46.0277 74.1266 46.461C74.3519 46.8857 74.4646 47.4143 74.4646 48.047V52.012H73.8146V48.099C73.8146 47.3363 73.6283 46.7557 73.2556 46.357C72.8829 45.9583 72.3629 45.759 71.6956 45.759C71.1842 45.759 70.7423 45.8673 70.3696 46.084C69.9969 46.3007 69.7109 46.604 69.5116 46.994C69.3123 47.384 69.2126 47.852 69.2126 48.398V52.012H68.5626V48.099C68.5626 47.3363 68.3763 46.7557 68.0036 46.357C67.6309 45.9583 67.1109 45.759 66.4436 45.759C65.9323 45.759 65.4903 45.8673 65.1176 46.084C64.7449 46.3007 64.4589 46.604 64.2596 46.994C64.0603 47.384 63.9606 47.852 63.9606 48.398V52.012H63.3106V45.226H63.9346V47.098L63.8436 46.89C64.0429 46.3613 64.3766 45.9453 64.8446 45.642C65.3126 45.33 65.8759 45.174 66.5346 45.174C67.2106 45.174 67.7783 45.3473 68.2376 45.694C68.7056 46.032 69.0003 46.539 69.1216 47.215L68.9006 47.124C69.0826 46.5433 69.4249 46.0753 69.9276 45.72C70.4303 45.356 71.0413 45.174 71.7606 45.174Z" fill="#E6E6E6"/>
<path d="M78.3185 52.012V45.226H78.9685V52.012H78.3185ZM78.6435 43.575C78.4961 43.575 78.3705 43.523 78.2665 43.419C78.1625 43.315 78.1105 43.1937 78.1105 43.055C78.1105 42.9077 78.1625 42.782 78.2665 42.678C78.3705 42.574 78.4961 42.522 78.6435 42.522C78.7995 42.522 78.9251 42.574 79.0205 42.678C79.1245 42.7733 79.1765 42.8947 79.1765 43.042C79.1765 43.1893 79.1245 43.315 79.0205 43.419C78.9251 43.523 78.7995 43.575 78.6435 43.575Z" fill="#E6E6E6"/>
<path d="M85.6341 52.064C84.9495 52.064 84.3428 51.9167 83.8141 51.622C83.2941 51.3273 82.8825 50.92 82.5791 50.4C82.2845 49.88 82.1371 49.2863 82.1371 48.619C82.1371 47.943 82.2758 47.3493 82.5531 46.838C82.8391 46.318 83.2291 45.9107 83.7231 45.616C84.2171 45.3213 84.7718 45.174 85.3871 45.174C86.0025 45.174 86.5528 45.317 87.0381 45.603C87.5321 45.889 87.9178 46.292 88.1951 46.812C88.4811 47.3233 88.6241 47.917 88.6241 48.593C88.6241 48.619 88.6198 48.6493 88.6111 48.684C88.6111 48.71 88.6111 48.7403 88.6111 48.775H82.6181V48.268H88.2601L88.0001 48.515C88.0088 47.9863 87.8961 47.514 87.6621 47.098C87.4368 46.6733 87.1291 46.344 86.7391 46.11C86.3491 45.8673 85.8985 45.746 85.3871 45.746C84.8845 45.746 84.4338 45.8673 84.0351 46.11C83.6451 46.344 83.3375 46.6733 83.1121 47.098C82.8868 47.514 82.7741 47.9907 82.7741 48.528V48.645C82.7741 49.1997 82.8955 49.6937 83.1381 50.127C83.3895 50.5517 83.7318 50.8853 84.1651 51.128C84.5985 51.362 85.0925 51.479 85.6471 51.479C86.0805 51.479 86.4835 51.401 86.8561 51.245C87.2375 51.089 87.5581 50.8507 87.8181 50.53L88.1951 50.959C87.9005 51.323 87.5278 51.6003 87.0771 51.791C86.6351 51.973 86.1541 52.064 85.6341 52.064Z" fill="#E6E6E6"/>
<path d="M95.12 45.174C95.6746 45.174 96.1556 45.2823 96.563 45.499C96.979 45.707 97.2996 46.0277 97.525 46.461C97.759 46.8857 97.876 47.4143 97.876 48.047V52.012H97.226V48.099C97.226 47.3363 97.031 46.7557 96.641 46.357C96.2596 45.9583 95.7223 45.759 95.029 45.759C94.5003 45.759 94.041 45.8673 93.651 46.084C93.261 46.3007 92.962 46.604 92.754 46.994C92.5546 47.384 92.455 47.852 92.455 48.398V52.012H91.805V45.226H92.429V47.111L92.338 46.903C92.546 46.3657 92.8883 45.9453 93.365 45.642C93.8416 45.33 94.4266 45.174 95.12 45.174Z" fill="#E6E6E6"/>
<path d="M103.698 52.064C103.1 52.064 102.641 51.8993 102.32 51.57C102.008 51.2407 101.852 50.79 101.852 50.218V43.744H102.502V50.153C102.502 50.5863 102.61 50.92 102.827 51.154C103.044 51.388 103.356 51.505 103.763 51.505C104.188 51.505 104.539 51.3793 104.816 51.128L105.089 51.583C104.916 51.7477 104.703 51.869 104.452 51.947C104.209 52.025 103.958 52.064 103.698 52.064ZM100.604 45.785V45.226H104.66V45.785H100.604Z" fill="#E6E6E6"/>
<path d="M110.483 52.064C109.833 52.064 109.252 51.9167 108.741 51.622C108.238 51.3273 107.835 50.92 107.532 50.4C107.237 49.88 107.09 49.2863 107.09 48.619C107.09 47.943 107.237 47.3493 107.532 46.838C107.835 46.318 108.238 45.9107 108.741 45.616C109.252 45.3213 109.833 45.174 110.483 45.174C111.133 45.174 111.713 45.3213 112.225 45.616C112.736 45.9107 113.139 46.318 113.434 46.838C113.728 47.3493 113.876 47.943 113.876 48.619C113.876 49.2863 113.728 49.88 113.434 50.4C113.139 50.92 112.736 51.3273 112.225 51.622C111.713 51.9167 111.133 52.064 110.483 52.064ZM110.483 51.479C111.003 51.479 111.471 51.362 111.887 51.128C112.303 50.8853 112.628 50.5473 112.862 50.114C113.096 49.6807 113.213 49.1823 113.213 48.619C113.213 48.047 113.096 47.5487 112.862 47.124C112.628 46.6907 112.303 46.357 111.887 46.123C111.471 45.8803 111.003 45.759 110.483 45.759C109.963 45.759 109.495 45.8803 109.079 46.123C108.671 46.357 108.346 46.6907 108.104 47.124C107.87 47.5487 107.753 48.047 107.753 48.619C107.753 49.1823 107.87 49.6807 108.104 50.114C108.346 50.5473 108.671 50.8853 109.079 51.128C109.495 51.362 109.963 51.479 110.483 51.479Z" fill="#E6E6E6"/>
</svg>
