<svg width="114" height="52" viewBox="0 0 114 52" fill="none" xmlns="http://www.w3.org/2000/svg">
<path d="M25.1503 0.479999H31.6303V28.48H25.1503V0.479999ZM12.4303 28.48H5.95025V0.479999H12.4303V28.48ZM25.6303 17H11.9503V11.52H25.6303V17Z" fill="#003366"/>
<path d="M41.8549 28.48V0.479999H47.2149L59.1349 20.24H56.2949L68.0149 0.479999H73.3349L73.4149 28.48H67.3349L67.2949 9.8H68.4149L59.0549 25.52H56.1349L46.5749 9.8H47.9349V28.48H41.8549Z" fill="#003366"/>
<path d="M97.0581 28.96C94.8981 28.96 92.8847 28.6133 91.0181 27.92C89.1781 27.2 87.5781 26.1867 86.2181 24.88C84.8581 23.5733 83.7914 22.04 83.0181 20.28C82.2714 18.52 81.8981 16.5867 81.8981 14.48C81.8981 12.3733 82.2714 10.44 83.0181 8.68C83.7914 6.92 84.8581 5.38667 86.2181 4.08C87.6047 2.77333 89.2181 1.77333 91.0581 1.08C92.8981 0.359999 94.9114 0 97.0981 0C99.5247 0 101.711 0.426667 103.658 1.28C105.631 2.10667 107.285 3.33333 108.618 4.96L104.458 8.8C103.498 7.70667 102.431 6.89333 101.258 6.36C100.085 5.8 98.8047 5.52 97.4181 5.52C96.1114 5.52 94.9114 5.73333 93.8181 6.16C92.7247 6.58667 91.7781 7.2 90.9781 8C90.1781 8.8 89.5514 9.74667 89.0981 10.84C88.6714 11.9333 88.4581 13.1467 88.4581 14.48C88.4581 15.8133 88.6714 17.0267 89.0981 18.12C89.5514 19.2133 90.1781 20.16 90.9781 20.96C91.7781 21.76 92.7247 22.3733 93.8181 22.8C94.9114 23.2267 96.1114 23.44 97.4181 23.44C98.8047 23.44 100.085 23.1733 101.258 22.64C102.431 22.08 103.498 21.24 104.458 20.12L108.618 23.96C107.285 25.5867 105.631 26.8267 103.658 27.68C101.711 28.5333 99.5114 28.96 97.0581 28.96Z" fill="#003366"/>
<path d="M8.57448 44.642C9.12048 44.642 9.59282 44.7503 9.99148 44.967C10.3988 45.175 10.7151 45.4957 10.9405 45.929C11.1658 46.3537 11.2785 46.8823 11.2785 47.515V51.48H10.6285V47.567C10.6285 46.8043 10.4421 46.2237 10.0695 45.825C9.69682 45.4263 9.17682 45.227 8.50948 45.227C7.99815 45.227 7.55615 45.3353 7.18348 45.552C6.81081 45.7687 6.52481 46.072 6.32548 46.462C6.12615 46.852 6.02648 47.32 6.02648 47.866V51.48H5.37648V47.567C5.37648 46.8043 5.19015 46.2237 4.81748 45.825C4.44481 45.4263 3.92481 45.227 3.25748 45.227C2.74615 45.227 2.30415 45.3353 1.93148 45.552C1.55881 45.7687 1.27281 46.072 1.07348 46.462C0.874148 46.852 0.774481 47.32 0.774481 47.866V51.48H0.124481V44.694H0.748481V46.566L0.657481 46.358C0.856815 45.8293 1.19048 45.4133 1.65848 45.11C2.12648 44.798 2.68981 44.642 3.34848 44.642C4.02448 44.642 4.59215 44.8153 5.05148 45.162C5.51948 45.5 5.81415 46.007 5.93548 46.683L5.71448 46.592C5.89648 46.0113 6.23881 45.5433 6.74148 45.188C7.24415 44.824 7.85515 44.642 8.57448 44.642Z" fill="#1B1B1B"/>
<path d="M19.4094 51.48V49.933L19.3834 49.699V47.151C19.3834 46.5183 19.21 46.0373 18.8634 45.708C18.5254 45.3787 18.027 45.214 17.3684 45.214C16.9004 45.214 16.4627 45.2963 16.0554 45.461C15.6567 45.617 15.3144 45.8207 15.0284 46.072L14.7034 45.604C15.0414 45.3007 15.4487 45.0667 15.9254 44.902C16.402 44.7287 16.9004 44.642 17.4204 44.642C18.261 44.642 18.9067 44.8543 19.3574 45.279C19.808 45.7037 20.0334 46.3363 20.0334 47.177V51.48H19.4094ZM16.9654 51.532C16.4627 51.532 16.025 51.454 15.6524 51.298C15.2884 51.1333 15.0067 50.9037 14.8074 50.609C14.6167 50.3143 14.5214 49.9763 14.5214 49.595C14.5214 49.2483 14.5994 48.9363 14.7554 48.659C14.92 48.373 15.1887 48.1433 15.5614 47.97C15.934 47.788 16.4324 47.697 17.0564 47.697H19.5524V48.204H17.0694C16.3674 48.204 15.8734 48.334 15.5874 48.594C15.31 48.854 15.1714 49.179 15.1714 49.569C15.1714 50.0023 15.336 50.349 15.6654 50.609C15.9947 50.869 16.4584 50.999 17.0564 50.999C17.6284 50.999 18.1094 50.869 18.4994 50.609C18.898 50.349 19.1927 49.972 19.3834 49.478L19.5654 49.92C19.3834 50.414 19.0714 50.8083 18.6294 51.103C18.196 51.389 17.6414 51.532 16.9654 51.532Z" fill="#1B1B1B"/>
<path d="M27.1965 44.642C27.7511 44.642 28.2321 44.7503 28.6395 44.967C29.0555 45.175 29.3761 45.4957 29.6015 45.929C29.8355 46.3537 29.9525 46.8823 29.9525 47.515V51.48H29.3025V47.567C29.3025 46.8043 29.1075 46.2237 28.7175 45.825C28.3361 45.4263 27.7988 45.227 27.1055 45.227C26.5768 45.227 26.1175 45.3353 25.7275 45.552C25.3375 45.7687 25.0385 46.072 24.8305 46.462C24.6311 46.852 24.5315 47.32 24.5315 47.866V51.48H23.8815V44.694H24.5055V46.579L24.4145 46.371C24.6225 45.8337 24.9648 45.4133 25.4415 45.11C25.9181 44.798 26.5031 44.642 27.1965 44.642Z" fill="#1B1B1B"/>
<path d="M35.7745 51.532C35.1765 51.532 34.7172 51.3673 34.3965 51.038C34.0845 50.7087 33.9285 50.258 33.9285 49.686V43.212H34.5785V49.621C34.5785 50.0543 34.6869 50.388 34.9035 50.622C35.1202 50.856 35.4322 50.973 35.8395 50.973C36.2642 50.973 36.6152 50.8473 36.8925 50.596L37.1655 51.051C36.9922 51.2157 36.7799 51.337 36.5285 51.415C36.2859 51.493 36.0345 51.532 35.7745 51.532ZM32.6805 45.253V44.694H36.7365V45.253H32.6805Z" fill="#1B1B1B"/>
<path d="M42.663 51.532C41.9784 51.532 41.3717 51.3847 40.843 51.09C40.323 50.7953 39.9114 50.388 39.608 49.868C39.3134 49.348 39.166 48.7543 39.166 48.087C39.166 47.411 39.3047 46.8173 39.582 46.306C39.868 45.786 40.258 45.3787 40.752 45.084C41.246 44.7893 41.8007 44.642 42.416 44.642C43.0314 44.642 43.5817 44.785 44.067 45.071C44.561 45.357 44.9467 45.76 45.224 46.28C45.51 46.7913 45.653 47.385 45.653 48.061C45.653 48.087 45.6487 48.1173 45.64 48.152C45.64 48.178 45.64 48.2083 45.64 48.243H39.647V47.736H45.289L45.029 47.983C45.0377 47.4543 44.925 46.982 44.691 46.566C44.4657 46.1413 44.158 45.812 43.768 45.578C43.378 45.3353 42.9274 45.214 42.416 45.214C41.9134 45.214 41.4627 45.3353 41.064 45.578C40.674 45.812 40.3664 46.1413 40.141 46.566C39.9157 46.982 39.803 47.4587 39.803 47.996V48.113C39.803 48.6677 39.9244 49.1617 40.167 49.595C40.4184 50.0197 40.7607 50.3533 41.194 50.596C41.6274 50.83 42.1214 50.947 42.676 50.947C43.1094 50.947 43.5124 50.869 43.885 50.713C44.2664 50.557 44.587 50.3187 44.847 49.998L45.224 50.427C44.9294 50.791 44.5567 51.0683 44.106 51.259C43.664 51.441 43.183 51.532 42.663 51.532Z" fill="#1B1B1B"/>
<path d="M52.1489 44.642C52.7035 44.642 53.1845 44.7503 53.5919 44.967C54.0079 45.175 54.3285 45.4957 54.5539 45.929C54.7879 46.3537 54.9049 46.8823 54.9049 47.515V51.48H54.2549V47.567C54.2549 46.8043 54.0599 46.2237 53.6699 45.825C53.2885 45.4263 52.7512 45.227 52.0579 45.227C51.5292 45.227 51.0699 45.3353 50.6799 45.552C50.2899 45.7687 49.9909 46.072 49.7829 46.462C49.5835 46.852 49.4839 47.32 49.4839 47.866V51.48H48.8339V44.694H49.4579V46.579L49.3669 46.371C49.5749 45.8337 49.9172 45.4133 50.3939 45.11C50.8705 44.798 51.4555 44.642 52.1489 44.642Z" fill="#1B1B1B"/>
<path d="M58.7509 51.48V44.694H59.4009V51.48H58.7509ZM59.0759 43.043C58.9286 43.043 58.8029 42.991 58.6989 42.887C58.5949 42.783 58.5429 42.6617 58.5429 42.523C58.5429 42.3757 58.5949 42.25 58.6989 42.146C58.8029 42.042 58.9286 41.99 59.0759 41.99C59.2319 41.99 59.3576 42.042 59.4529 42.146C59.5569 42.2413 59.6089 42.3627 59.6089 42.51C59.6089 42.6573 59.5569 42.783 59.4529 42.887C59.3576 42.991 59.2319 43.043 59.0759 43.043Z" fill="#1B1B1B"/>
<path d="M71.7606 44.642C72.3066 44.642 72.7789 44.7503 73.1776 44.967C73.5849 45.175 73.9012 45.4957 74.1266 45.929C74.3519 46.3537 74.4646 46.8823 74.4646 47.515V51.48H73.8146V47.567C73.8146 46.8043 73.6282 46.2237 73.2556 45.825C72.8829 45.4263 72.3629 45.227 71.6956 45.227C71.1842 45.227 70.7422 45.3353 70.3696 45.552C69.9969 45.7687 69.7109 46.072 69.5116 46.462C69.3122 46.852 69.2126 47.32 69.2126 47.866V51.48H68.5626V47.567C68.5626 46.8043 68.3762 46.2237 68.0036 45.825C67.6309 45.4263 67.1109 45.227 66.4436 45.227C65.9322 45.227 65.4902 45.3353 65.1176 45.552C64.7449 45.7687 64.4589 46.072 64.2596 46.462C64.0602 46.852 63.9606 47.32 63.9606 47.866V51.48H63.3106V44.694H63.9346V46.566L63.8436 46.358C64.0429 45.8293 64.3766 45.4133 64.8446 45.11C65.3126 44.798 65.8759 44.642 66.5346 44.642C67.2106 44.642 67.7782 44.8153 68.2376 45.162C68.7056 45.5 69.0002 46.007 69.1216 46.683L68.9006 46.592C69.0826 46.0113 69.4249 45.5433 69.9276 45.188C70.4302 44.824 71.0412 44.642 71.7606 44.642Z" fill="#1B1B1B"/>
<path d="M78.3185 51.48V44.694H78.9685V51.48H78.3185ZM78.6435 43.043C78.4961 43.043 78.3705 42.991 78.2665 42.887C78.1625 42.783 78.1105 42.6617 78.1105 42.523C78.1105 42.3757 78.1625 42.25 78.2665 42.146C78.3705 42.042 78.4961 41.99 78.6435 41.99C78.7995 41.99 78.9251 42.042 79.0205 42.146C79.1245 42.2413 79.1765 42.3627 79.1765 42.51C79.1765 42.6573 79.1245 42.783 79.0205 42.887C78.9251 42.991 78.7995 43.043 78.6435 43.043Z" fill="#1B1B1B"/>
<path d="M85.6341 51.532C84.9494 51.532 84.3428 51.3847 83.8141 51.09C83.2941 50.7953 82.8824 50.388 82.5791 49.868C82.2844 49.348 82.1371 48.7543 82.1371 48.087C82.1371 47.411 82.2758 46.8173 82.5531 46.306C82.8391 45.786 83.2291 45.3787 83.7231 45.084C84.2171 44.7893 84.7718 44.642 85.3871 44.642C86.0024 44.642 86.5528 44.785 87.0381 45.071C87.5321 45.357 87.9178 45.76 88.1951 46.28C88.4811 46.7913 88.6241 47.385 88.6241 48.061C88.6241 48.087 88.6198 48.1173 88.6111 48.152C88.6111 48.178 88.6111 48.2083 88.6111 48.243H82.6181V47.736H88.2601L88.0001 47.983C88.0088 47.4543 87.8961 46.982 87.6621 46.566C87.4368 46.1413 87.1291 45.812 86.7391 45.578C86.3491 45.3353 85.8984 45.214 85.3871 45.214C84.8844 45.214 84.4338 45.3353 84.0351 45.578C83.6451 45.812 83.3374 46.1413 83.1121 46.566C82.8868 46.982 82.7741 47.4587 82.7741 47.996V48.113C82.7741 48.6677 82.8954 49.1617 83.1381 49.595C83.3894 50.0197 83.7318 50.3533 84.1651 50.596C84.5984 50.83 85.0924 50.947 85.6471 50.947C86.0804 50.947 86.4834 50.869 86.8561 50.713C87.2374 50.557 87.5581 50.3187 87.8181 49.998L88.1951 50.427C87.9004 50.791 87.5278 51.0683 87.0771 51.259C86.6351 51.441 86.1541 51.532 85.6341 51.532Z" fill="#1B1B1B"/>
<path d="M95.1199 44.642C95.6746 44.642 96.1556 44.7503 96.5629 44.967C96.9789 45.175 97.2996 45.4957 97.5249 45.929C97.7589 46.3537 97.8759 46.8823 97.8759 47.515V51.48H97.2259V47.567C97.2259 46.8043 97.0309 46.2237 96.6409 45.825C96.2596 45.4263 95.7223 45.227 95.0289 45.227C94.5003 45.227 94.0409 45.3353 93.6509 45.552C93.2609 45.7687 92.9619 46.072 92.7539 46.462C92.5546 46.852 92.4549 47.32 92.4549 47.866V51.48H91.8049V44.694H92.4289V46.579L92.3379 46.371C92.5459 45.8337 92.8883 45.4133 93.3649 45.11C93.8416 44.798 94.4266 44.642 95.1199 44.642Z" fill="#1B1B1B"/>
<path d="M103.698 51.532C103.1 51.532 102.641 51.3673 102.32 51.038C102.008 50.7087 101.852 50.258 101.852 49.686V43.212H102.502V49.621C102.502 50.0543 102.61 50.388 102.827 50.622C103.044 50.856 103.356 50.973 103.763 50.973C104.188 50.973 104.539 50.8473 104.816 50.596L105.089 51.051C104.916 51.2157 104.703 51.337 104.452 51.415C104.209 51.493 103.958 51.532 103.698 51.532ZM100.604 45.253V44.694H104.66V45.253H100.604Z" fill="#1B1B1B"/>
<path d="M110.482 51.532C109.832 51.532 109.252 51.3847 108.741 51.09C108.238 50.7953 107.835 50.388 107.532 49.868C107.237 49.348 107.09 48.7543 107.09 48.087C107.09 47.411 107.237 46.8173 107.532 46.306C107.835 45.786 108.238 45.3787 108.741 45.084C109.252 44.7893 109.832 44.642 110.482 44.642C111.132 44.642 111.713 44.7893 112.225 45.084C112.736 45.3787 113.139 45.786 113.434 46.306C113.728 46.8173 113.876 47.411 113.876 48.087C113.876 48.7543 113.728 49.348 113.434 49.868C113.139 50.388 112.736 50.7953 112.225 51.09C111.713 51.3847 111.132 51.532 110.482 51.532ZM110.482 50.947C111.002 50.947 111.471 50.83 111.887 50.596C112.303 50.3533 112.628 50.0153 112.862 49.582C113.096 49.1487 113.213 48.6503 113.213 48.087C113.213 47.515 113.096 47.0167 112.862 46.592C112.628 46.1587 112.303 45.825 111.887 45.591C111.471 45.3483 111.002 45.227 110.482 45.227C109.963 45.227 109.494 45.3483 109.078 45.591C108.671 45.825 108.346 46.1587 108.104 46.592C107.869 47.0167 107.753 47.515 107.753 48.087C107.753 48.6503 107.869 49.1487 108.104 49.582C108.346 50.0153 108.671 50.3533 109.078 50.596C109.494 50.83 109.963 50.947 110.482 50.947Z" fill="#1B1B1B"/>
</svg>
