<svg width="103" height="30" viewBox="0 0 103 30" fill="none" xmlns="http://www.w3.org/2000/svg">
<path d="M19.52 0.999998H26V29H19.52V0.999998ZM6.8 29H0.32V0.999998H6.8V29ZM20 17.52H6.32V12.04H20V17.52ZM36.2247 29V0.999998H41.5847L53.5047 20.76H50.6647L62.3847 0.999998H67.7047L67.7847 29H61.7047L61.6647 10.32H62.7847L53.4247 26.04H50.5047L40.9447 10.32H42.3047V29H36.2247ZM91.4278 29.48C89.2678 29.48 87.2545 29.1333 85.3878 28.44C83.5478 27.72 81.9478 26.7067 80.5878 25.4C79.2278 24.0933 78.1611 22.56 77.3878 20.8C76.6411 19.04 76.2678 17.1067 76.2678 15C76.2678 12.8933 76.6411 10.96 77.3878 9.2C78.1611 7.44 79.2278 5.90667 80.5878 4.6C81.9745 3.29333 83.5878 2.29333 85.4278 1.6C87.2678 0.879999 89.2811 0.52 91.4678 0.52C93.8945 0.52 96.0811 0.946666 98.0278 1.8C100.001 2.62667 101.654 3.85333 102.988 5.48L98.8278 9.32C97.8678 8.22667 96.8011 7.41333 95.6278 6.88C94.4545 6.32 93.1745 6.04 91.7878 6.04C90.4811 6.04 89.2811 6.25333 88.1878 6.68C87.0945 7.10666 86.1478 7.72 85.3478 8.52C84.5478 9.32 83.9211 10.2667 83.4678 11.36C83.0411 12.4533 82.8278 13.6667 82.8278 15C82.8278 16.3333 83.0411 17.5467 83.4678 18.64C83.9211 19.7333 84.5478 20.68 85.3478 21.48C86.1478 22.28 87.0945 22.8933 88.1878 23.32C89.2811 23.7467 90.4811 23.96 91.7878 23.96C93.1745 23.96 94.4545 23.6933 95.6278 23.16C96.8011 22.6 97.8678 21.76 98.8278 20.64L102.988 24.48C101.654 26.1067 100.001 27.3467 98.0278 28.2C96.0811 29.0533 93.8811 29.48 91.4278 29.48Z" fill="#003366"/>
</svg>
