<svg width="104" height="30" viewBox="0 0 104 30" fill="none" xmlns="http://www.w3.org/2000/svg">
<path d="M19.8661 0.543994H26.3461V28.544H19.8661V0.543994ZM7.14609 28.544H0.666092V0.543994H7.14609V28.544ZM20.3461 17.064H6.66609V11.584H20.3461V17.064Z" fill="#003366"/>
<path d="M36.5708 28.544V0.543994H41.9308L53.8508 20.304H51.0108L62.7308 0.543994H68.0508L68.1308 28.544H62.0508L62.0108 9.864H63.1308L53.7708 25.584H50.8508L41.2908 9.864H42.6508V28.544H36.5708Z" fill="#003366"/>
<path d="M91.7739 29.024C89.6139 29.024 87.6006 28.6773 85.7339 27.984C83.8939 27.264 82.2939 26.2507 80.9339 24.944C79.5739 23.6373 78.5072 22.104 77.7339 20.344C76.9872 18.584 76.6139 16.6507 76.6139 14.544C76.6139 12.4373 76.9872 10.504 77.7339 8.74399C78.5072 6.98399 79.5739 5.45066 80.9339 4.144C82.3206 2.83733 83.9339 1.83733 85.7739 1.14399C87.6139 0.423995 89.6272 0.0639954 91.8139 0.0639954C94.2406 0.0639954 96.4272 0.490662 98.3739 1.344C100.347 2.17066 102.001 3.39733 103.334 5.024L99.1739 8.864C98.2139 7.77066 97.1472 6.95733 95.9739 6.42399C94.8006 5.864 93.5206 5.584 92.1339 5.584C90.8272 5.584 89.6272 5.79733 88.5339 6.22399C87.4406 6.65066 86.4939 7.26399 85.6939 8.06399C84.8939 8.86399 84.2672 9.81066 83.8139 10.904C83.3872 11.9973 83.1739 13.2107 83.1739 14.544C83.1739 15.8773 83.3872 17.0907 83.8139 18.184C84.2672 19.2773 84.8939 20.224 85.6939 21.024C86.4939 21.824 87.4406 22.4373 88.5339 22.864C89.6272 23.2907 90.8272 23.504 92.1339 23.504C93.5206 23.504 94.8006 23.2373 95.9739 22.704C97.1472 22.144 98.2139 21.304 99.1739 20.184L103.334 24.024C102.001 25.6507 100.347 26.8907 98.3739 27.744C96.4272 28.5973 94.2272 29.024 91.7739 29.024Z" fill="#003366"/>
</svg>
