<svg width="142" height="50" viewBox="0 0 142 50" fill="none" xmlns="http://www.w3.org/2000/svg">
<path d="M136.001 49.048C135.585 49.048 135.185 48.9813 134.801 48.848C134.423 48.7093 134.129 48.5333 133.921 48.32L134.153 47.864C134.351 48.056 134.615 48.2187 134.945 48.352C135.281 48.48 135.633 48.544 136.001 48.544C136.353 48.544 136.639 48.5013 136.857 48.416C137.081 48.3253 137.244 48.2053 137.345 48.056C137.452 47.9067 137.505 47.7413 137.505 47.56C137.505 47.3413 137.441 47.1653 137.313 47.032C137.191 46.8987 137.028 46.7947 136.825 46.72C136.623 46.64 136.399 46.5707 136.153 46.512C135.908 46.4533 135.663 46.392 135.417 46.328C135.172 46.2587 134.945 46.168 134.737 46.056C134.535 45.944 134.369 45.7973 134.241 45.616C134.119 45.4293 134.057 45.1867 134.057 44.888C134.057 44.6107 134.129 44.3573 134.273 44.128C134.423 43.8933 134.649 43.7067 134.953 43.568C135.257 43.424 135.647 43.352 136.121 43.352C136.436 43.352 136.748 43.3973 137.057 43.488C137.367 43.5733 137.633 43.6933 137.857 43.848L137.657 44.32C137.417 44.16 137.161 44.0427 136.889 43.968C136.623 43.8933 136.364 43.856 136.113 43.856C135.777 43.856 135.5 43.9013 135.281 43.992C135.063 44.0827 134.9 44.2053 134.793 44.36C134.692 44.5093 134.641 44.68 134.641 44.872C134.641 45.0907 134.703 45.2667 134.825 45.4C134.953 45.5333 135.119 45.6373 135.321 45.712C135.529 45.7867 135.756 45.8533 136.001 45.912C136.247 45.9707 136.489 46.0347 136.729 46.104C136.975 46.1733 137.199 46.264 137.401 46.376C137.609 46.4827 137.775 46.6267 137.897 46.808C138.025 46.9893 138.089 47.2267 138.089 47.52C138.089 47.792 138.015 48.0453 137.865 48.28C137.716 48.5093 137.487 48.696 137.177 48.84C136.873 48.9787 136.481 49.048 136.001 49.048Z" fill="white"/>
<path d="M130.22 49.04C130.103 49.04 130.001 48.9973 129.916 48.912C129.836 48.8267 129.796 48.7227 129.796 48.6C129.796 48.472 129.836 48.368 129.916 48.288C130.001 48.208 130.103 48.168 130.22 48.168C130.337 48.168 130.436 48.208 130.516 48.288C130.601 48.368 130.644 48.472 130.644 48.6C130.644 48.7227 130.601 48.8267 130.516 48.912C130.436 48.9973 130.337 49.04 130.22 49.04Z" fill="white"/>
<path d="M120.98 49L123.54 43.4H124.124L126.684 49H126.06L123.708 43.744H123.948L121.596 49H120.98ZM121.988 47.504L122.164 47.024H125.42L125.596 47.504H121.988Z" fill="white"/>
<path d="M117.443 49.04C117.326 49.04 117.225 48.9973 117.139 48.912C117.059 48.8267 117.019 48.7227 117.019 48.6C117.019 48.472 117.059 48.368 117.139 48.288C117.225 48.208 117.326 48.168 117.443 48.168C117.561 48.168 117.659 48.208 117.739 48.288C117.825 48.368 117.867 48.472 117.867 48.6C117.867 48.7227 117.825 48.8267 117.739 48.912C117.659 48.9973 117.561 49.04 117.443 49.04Z" fill="white"/>
<path d="M111.573 49.048C111.157 49.048 110.757 48.9813 110.373 48.848C109.995 48.7093 109.701 48.5333 109.493 48.32L109.725 47.864C109.923 48.056 110.187 48.2187 110.517 48.352C110.853 48.48 111.205 48.544 111.573 48.544C111.925 48.544 112.211 48.5013 112.429 48.416C112.653 48.3253 112.816 48.2053 112.917 48.056C113.024 47.9067 113.077 47.7413 113.077 47.56C113.077 47.3413 113.013 47.1653 112.885 47.032C112.763 46.8987 112.6 46.7947 112.397 46.72C112.195 46.64 111.971 46.5707 111.725 46.512C111.48 46.4533 111.235 46.392 110.989 46.328C110.744 46.2587 110.517 46.168 110.309 46.056C110.107 45.944 109.941 45.7973 109.813 45.616C109.691 45.4293 109.629 45.1867 109.629 44.888C109.629 44.6107 109.701 44.3573 109.845 44.128C109.995 43.8933 110.221 43.7067 110.525 43.568C110.829 43.424 111.219 43.352 111.693 43.352C112.008 43.352 112.32 43.3973 112.629 43.488C112.939 43.5733 113.205 43.6933 113.429 43.848L113.229 44.32C112.989 44.16 112.733 44.0427 112.461 43.968C112.195 43.8933 111.936 43.856 111.685 43.856C111.349 43.856 111.072 43.9013 110.853 43.992C110.635 44.0827 110.472 44.2053 110.365 44.36C110.264 44.5093 110.213 44.68 110.213 44.872C110.213 45.0907 110.275 45.2667 110.397 45.4C110.525 45.5333 110.691 45.6373 110.893 45.712C111.101 45.7867 111.328 45.8533 111.573 45.912C111.819 45.9707 112.061 46.0347 112.301 46.104C112.547 46.1733 112.771 46.264 112.973 46.376C113.181 46.4827 113.347 46.6267 113.469 46.808C113.597 46.9893 113.661 47.2267 113.661 47.52C113.661 47.792 113.587 48.0453 113.437 48.28C113.288 48.5093 113.059 48.696 112.749 48.84C112.445 48.9787 112.053 49.048 111.573 49.048Z" fill="white"/>
<path d="M98.8725 49.048C98.4512 49.048 98.0592 48.9787 97.6965 48.84C97.3392 48.696 97.0272 48.496 96.7605 48.24C96.4992 47.9787 96.2938 47.6773 96.1445 47.336C96.0005 46.9893 95.9285 46.6107 95.9285 46.2C95.9285 45.7893 96.0005 45.4133 96.1445 45.072C96.2938 44.7253 96.4992 44.424 96.7605 44.168C97.0272 43.9067 97.3392 43.7067 97.6965 43.568C98.0538 43.424 98.4458 43.352 98.8725 43.352C99.2938 43.352 99.6832 43.424 100.04 43.568C100.398 43.7067 100.707 43.904 100.968 44.16C101.235 44.416 101.44 44.7173 101.584 45.064C101.734 45.4107 101.808 45.7893 101.808 46.2C101.808 46.6107 101.734 46.9893 101.584 47.336C101.44 47.6827 101.235 47.984 100.968 48.24C100.707 48.496 100.398 48.696 100.04 48.84C99.6832 48.9787 99.2938 49.048 98.8725 49.048ZM98.8725 48.52C99.2085 48.52 99.5178 48.464 99.8005 48.352C100.088 48.2347 100.336 48.072 100.544 47.864C100.758 47.6507 100.923 47.4053 101.04 47.128C101.158 46.8453 101.216 46.536 101.216 46.2C101.216 45.864 101.158 45.5573 101.04 45.28C100.923 44.9973 100.758 44.752 100.544 44.544C100.336 44.3307 100.088 44.168 99.8005 44.056C99.5178 43.9387 99.2085 43.88 98.8725 43.88C98.5365 43.88 98.2245 43.9387 97.9365 44.056C97.6485 44.168 97.3978 44.3307 97.1845 44.544C96.9765 44.752 96.8112 44.9973 96.6885 45.28C96.5712 45.5573 96.5125 45.864 96.5125 46.2C96.5125 46.5307 96.5712 46.8373 96.6885 47.12C96.8112 47.4027 96.9765 47.6507 97.1845 47.864C97.3978 48.072 97.6485 48.2347 97.9365 48.352C98.2245 48.464 98.5365 48.52 98.8725 48.52Z" fill="white"/>
<path d="M90.5969 49V43.912H88.6289V43.4H93.1569V43.912H91.1889V49H90.5969Z" fill="white"/>
<path d="M80.6011 49V43.4H81.0891L84.9531 48.264H84.6971V43.4H85.2811V49H84.7931L80.9371 44.136H81.1931V49H80.6011Z" fill="white"/>
<path d="M73.3775 45.904H76.3375V46.408H73.3775V45.904ZM73.4415 48.488H76.8095V49H72.8495V43.4H76.6895V43.912H73.4415V48.488Z" fill="white"/>
<path d="M68.0354 49V43.4H68.6274V49H68.0354Z" fill="white"/>
<path d="M57.9948 49V43.4H58.4828L61.0428 47.768H60.7868L63.3228 43.4H63.8108V49H63.2428V44.288H63.3788L61.0428 48.288H60.7628L58.4108 44.288H58.5628V49H57.9948Z" fill="white"/>
<path d="M53.1808 49V43.4H53.7728V49H53.1808Z" fill="white"/>
<path d="M44.2729 49V43.4H44.7609L48.6249 48.264H48.3689V43.4H48.9529V49H48.4649L44.6089 44.136H44.8649V49H44.2729Z" fill="white"/>
<path d="M37.0494 45.904H40.0094V46.408H37.0494V45.904ZM37.1134 48.488H40.4814V49H36.5214V43.4H40.3614V43.912H37.1134V48.488Z" fill="white"/>
<path d="M30.6156 49V43.912H28.6476V43.4H33.1756V43.912H31.2076V49H30.6156Z" fill="white"/>
<path d="M20.6198 49V43.4H21.1078L24.9718 48.264H24.7158V43.4H25.2998V49H24.8118L20.9558 44.136H21.2118V49H20.6198Z" fill="white"/>
<path d="M11.5894 49L14.1494 43.4H14.7334L17.2934 49H16.6694L14.3174 43.744H14.5574L12.2054 49H11.5894ZM12.5974 47.504L12.7734 47.024H16.0294L16.2054 47.504H12.5974Z" fill="white"/>
<path d="M2.44481 49V43.4H2.93281L5.49281 47.768H5.23681L7.77281 43.4H8.26081V49H7.69281V44.288H7.82881L5.49281 48.288H5.21281L2.86081 44.288H3.01281V49H2.44481Z" fill="white"/>
<path d="M38.2 0.479999H44.68V28.48H38.2V0.479999ZM25.48 28.48H19V0.479999H25.48V28.48ZM38.68 17H25V11.52H38.68V17Z" fill="#003366"/>
<path d="M54.9047 28.48V0.479999H60.2647L72.1847 20.24H69.3447L81.0647 0.479999H86.3847L86.4647 28.48H80.3847L80.3447 9.8H81.4647L72.1047 25.52H69.1847L59.6247 9.8H60.9847V28.48H54.9047Z" fill="#003366"/>
<path d="M110.108 28.96C107.948 28.96 105.934 28.6133 104.068 27.92C102.228 27.2 100.628 26.1867 99.2678 24.88C97.9078 23.5733 96.8411 22.04 96.0678 20.28C95.3211 18.52 94.9478 16.5867 94.9478 14.48C94.9478 12.3733 95.3211 10.44 96.0678 8.68C96.8411 6.92 97.9078 5.38667 99.2678 4.08C100.654 2.77333 102.268 1.77333 104.108 1.08C105.948 0.359999 107.961 0 110.148 0C112.574 0 114.761 0.426667 116.708 1.28C118.681 2.10667 120.334 3.33333 121.668 4.96L117.508 8.8C116.548 7.70667 115.481 6.89333 114.308 6.36C113.134 5.8 111.854 5.52 110.468 5.52C109.161 5.52 107.961 5.73333 106.868 6.16C105.774 6.58667 104.828 7.2 104.028 8C103.228 8.8 102.601 9.74667 102.148 10.84C101.721 11.9333 101.508 13.1467 101.508 14.48C101.508 15.8133 101.721 17.0267 102.148 18.12C102.601 19.2133 103.228 20.16 104.028 20.96C104.828 21.76 105.774 22.3733 106.868 22.8C107.961 23.2267 109.161 23.44 110.468 23.44C111.854 23.44 113.134 23.1733 114.308 22.64C115.481 22.08 116.548 21.24 117.508 20.12L121.668 23.96C120.334 25.5867 118.681 26.8267 116.708 27.68C114.761 28.5333 112.561 28.96 110.108 28.96Z" fill="#003366"/>
<path d="M141 35.5C91.9986 32.6628 59.7532 34.4915 0.5 39" stroke="#569FBA" stroke-width="3"/>
</svg>
